<svg viewBox="-16 -16 32 32" height="32" width="32" xmlns="http://www.w3.org/2000/svg"><circle r="15" stroke="#000" fill="#0efffd"/><text y="-2.102" x="-10.161" style="line-height:1.25;-inkscape-font-specification:'lato Bold'" font-weight="700" font-size="12" font-family="lato" letter-spacing="0" word-spacing="0"><tspan y="-2.102" x="-6.008">20</tspan></text><path d="M10.996 104.129C2.555 101.43 0 99.395 0 95.387 0 93.523.168 92 .375 92c.203 0 2.359 1.109 4.785 2.465 2.43 1.359 7.61 3.015 11.516 3.687 8.316 1.426 14.941.336 23.297-3.824l5.16-2.574 4.683 2.535c10.457 5.66 23.512 5.887 34.102.594l5.961-2.977 4.844 2.453c11.039 5.594 23.66 5.789 34.191.524l5.961-2.977 5.898 2.981c10.43 5.261 24.012 5.074 34.102-.481 2.406-1.324 4.574-2.406 4.813-2.406.238 0 .292 1.656.121 3.676-.27 3.238-.848 3.953-4.809 5.961-10.676 5.418-24.254 5.593-34.281.445l-5.781-2.969-4.762 2.391c-11.949 6.004-25.789 5.785-36.567-.57l-3.351-1.981-5.156 2.59c-11.012 5.531-24.172 5.539-35.157.023l-5.164-2.593-3.199 1.976c-7.867 4.863-21.047 6.235-30.586 3.18zm.176-28.512C5.578 67.039 1 59.793 1 59.512 1 59.23 8.191 59 16.98 59h15.981l4.078-8h7.457c7.242 0 7.496-.082 8.977-2.949.839-1.625 1.527-3.199 1.527-3.5 0-.305-3.148-.551-7-.551s-7-.215-7-.48c0-.266 1.445-3.415 3.215-7L47.43 30h16.382L72.5 15C78.836 4.055 81.695 0 83.066 0c1.61 0 1.743.375.911 2.566C82.496 6.457 82.742 7 86 7c2.535 0 3 .391 3 2.5 0 2.242-.406 2.5-3.91 2.5h-3.91l-3.09 9.203-3.086 9.207 3.195 3.293L81.391 37h45.492l11.234-19.086 14.383.586.289 9.25.285 9.25h4.278c3.906 0 4.421.305 5.945 3.5l1.672 3.5H70.336l-2.148 7h100.773L171 55c1.797 3.52 2.461 4 5.551 4h3.508l-.278 12.75-.281 12.75-6 3c-5.523 2.762-6.832 3-16.5 3-9.871 0-10.84-.188-16.18-3.113l-5.675-3.117-6.286 3.117c-5.781 2.863-7.093 3.113-16.359 3.113-9.238 0-10.59-.254-16.285-3.078L90 84.34l-6.219 3.082c-5.703 2.824-7.054 3.078-16.289 3.078-9.238 0-10.586-.254-16.281-3.078L45 84.34l-6.098 3.023c-3.937 1.949-8.132 3.172-11.828 3.438l-5.73.414z" style="fill:#000;fill-opacity:1;fill-rule:nonzero;stroke:none" transform="translate(-9.72 -1.933) scale(.10953)"/><text xml:space="preserve" style="font-style:normal;font-weight:400;font-size:40px;line-height:1.25;font-family:sans-serif;fill:#000;fill-opacity:1;stroke:none" x="8.678" y="1.682"/></svg>