<svg viewBox="-16 -16 32 32" height="32" width="32" xmlns="http://www.w3.org/2000/svg"><circle r="15" stroke="#000" fill="#0efffd"/><text y="-2.102" x="-10.161" style="line-height:1.25;-inkscape-font-specification:'lato Bold'" font-weight="700" font-size="12" font-family="lato" letter-spacing="0" word-spacing="0"><tspan y="-2.102" x="-6.008">50</tspan></text><path d="M102.75 298.383c-11.758-1.844-22-11.496-24.723-23.289-2.679-11.621 2.434-24.946 12.114-31.574 6.117-4.188 9.734-5.266 17.898-5.336 6.828-.055 7.43.074 12.879 2.765 17.91 8.852 22.832 31.266 10.332 47.051-6.141 7.75-17.926 12.047-28.5 10.383zm129.605.047c-9.406-1.356-18.398-8.11-22.519-16.922-7.274-15.539-1.156-32.946 14.246-40.559 5.449-2.691 6.051-2.82 12.879-2.765 4.785.043 8.285.484 10.539 1.336 16.738 6.312 24.785 25.492 17.355 41.367-5.957 12.73-18.582 19.547-32.5 17.543zM49.75 267.793c-6.191-1.508-12.906-7.906-14.086-13.414-.234-1.102-4.641-25.461-9.793-54.129-5.148-28.668-9.562-53.055-9.801-54.188L15.629 144H329.41l-.398 1.688c-.223.929-4.66 25.48-9.867 54.562-5.204 29.082-9.793 53.914-10.196 55.188-1.25 3.937-4.945 8.183-9.097 10.457-3.692 2.015-4.567 2.175-12.227 2.203l-8.25.027-.437-4.5c-1.614-16.625-14.633-31.687-31.102-35.98-5.555-1.446-15.957-1.461-21.332-.032-16.055 4.274-28.566 18.313-30.922 34.699l-.887 6.188h-44.39l-.891-6.188c-2.352-16.386-14.863-30.425-30.922-34.699-5.328-1.418-15.765-1.418-21.215.004-16.558 4.313-29.601 19.36-31.215 36.008l-.437 4.5-6.75.125c-3.715.066-7.82-.137-9.125-.457zM5.527 130.879C.863 128.086 0 125.559 0 114.738c0-10.918 1.184-13.972 6.375-16.488 3.07-1.484 4.629-1.5 166.125-1.5s163.055.016 166.125 1.5c5.211 2.523 6.375 5.559 6.375 16.613 0 10.797-.934 13.453-5.703 16.188l-2.922 1.676-327.75.007zm29.356-46.141c.258-.418 5.859-9.613 12.449-20.437 10.395-17.078 12.199-19.645 13.637-19.434.91.137 6.836 1.25 13.164 2.481 6.332 1.23 11.957 2.132 12.508 2.007.547-.128 8.414-7.402 17.48-16.167 15.672-15.153 16.629-15.938 19.371-15.93 1.586.008 9.801.683 18.258 1.5 8.457.82 16.57 1.492 18.031 1.492 2.223 0 4.891-1.637 16.496-10.125C183.891 4.555 190.539 0 191.047 0c.969 0 48.281 17.586 50.48 18.766.696.371 4.387 7.882 8.2 16.687l6.937 16.012 16.746 3.211 16.746 3.207 7.285 13.246c4.008 7.285 7.426 13.5 7.594 13.809.168.308-60.656.562-135.16.562-91.305 0-135.309-.246-134.992-.758Z" style="fill:#000;fill-opacity:1;fill-rule:nonzero;stroke:none" transform="matrix(.04625 -.00014 .00014 .04625 -7.865 -.948)"/><text xml:space="preserve" style="font-style:normal;font-weight:400;font-size:40px;line-height:1.25;font-family:sans-serif;fill:#000;fill-opacity:1;stroke:none" x="8.678" y="1.682"/></svg>
